# xmcd CD database file
#
# Track frame offsets:
#	150
#	15172
#	30112
#	41846
#	54173
#	73135
#	93834
#	113366
#	129001
#	144868
#	159302
#	170524
#	183844
#
# Disc length: 2671 seconds
#
# Revision: 2
# Processed by: cddbd v1.4b41PL1 Copyright (c) Steve Scherf et al.
# Submitted via: Feurio! 1.52 - http://www.feurio.com
#
DISCID=880a6d0d
DTITLE=Albie Donnelly - The Spirit In Me
DYEAR=1900
DGENRE=
TTITLE0=Don't Do That She Might Get Mad
TTITLE1=Main Squeeze
TTITLE2=I Won't Cry Anymore
TTITLE3=You Had Your Chance
TTITLE4=Hold It
TTITLE5=Sir La Dude
TTITLE6=Personal Manager
TTITLE7=The Spirit In Me
TTITLE8=Cried Last Night
TTITLE9=In A Sentimental Mood
TTITLE10=Cakewalk Into Town
TTITLE11=Gotta Be The Boy
TTITLE12=Every Time We Say Goodbye
EXTD=
EXTT0=
EXTT1=
EXTT2=
EXTT3=
EXTT4=
EXTT5=
EXTT6=
EXTT7=
EXTT8=
EXTT9=
EXTT10=
EXTT11=
EXTT12=
PLAYORDER=
